<?xml version="1.0" encoding="UTF-8" standalone="no"?>
<!DOCTYPE svg PUBLIC "-//W3C//DTD SVG 1.0//EN" "http://www.w3.org/TR/2001/REC-SVG-20010904/DTD/svg10.dtd">
<svg xmlns="http://www.w3.org/2000/svg" version="1.0" viewBox="0.00 0.00 635.00 540.00">
<path fill="#2867b2" d="
  M 536.25 496.73
  A 39.02 39.02 0.0 0 1 497.23 535.75
  L 39.77 535.75
  A 39.02 39.02 0.0 0 1 0.75 496.73
  L 0.75 39.27
  A 39.02 39.02 0.0 0 1 39.77 0.25
  L 497.23 0.25
  A 39.02 39.02 0.0 0 1 536.25 39.27
  L 536.25 496.73
  Z
  M 165.83 120.07
  A 45.89 45.89 0.0 0 0 119.94 74.18
  A 45.89 45.89 0.0 0 0 74.05 120.07
  A 45.89 45.89 0.0 0 0 119.94 165.96
  A 45.89 45.89 0.0 0 0 165.83 120.07
  Z
  M 285.50 234.24
  L 285.50 201.75
  Q 285.50 201.25 285.00 201.25
  L 210.00 201.25
  Q 209.50 201.25 209.50 201.75
  L 209.50 455.75
  Q 209.50 456.25 210.00 456.25
  L 288.22 456.25
  Q 288.71 456.25 288.71 455.77
  Q 288.78 389.51 288.92 323.25
  C 288.98 297.24 296.38 268.61 327.25 264.85
  C 348.36 262.29 366.83 268.32 373.53 290.27
  C 376.58 300.25 377.77 311.33 377.76 321.75
  Q 377.72 388.73 377.76 455.75
  Q 377.76 456.25 378.26 456.25
  L 456.23 456.25
  Q 456.70 456.25 456.71 455.77
  C 456.76 425.26 456.72 394.76 456.92 364.25
  Q 457.17 327.44 456.59 301.38
  C 455.63 257.91 444.15 210.40 395.00 198.51
  Q 376.37 194.00 355.75 194.80
  C 327.93 195.88 301.64 210.90 287.60 234.81
  Q 285.50 238.38 285.50 234.24
  Z
  M 159.51 201.51
  A 0.26 0.26 0.0 0 0 159.25 201.25
  L 80.51 201.25
  A 0.26 0.26 0.0 0 0 80.25 201.51
  L 80.25 455.99
  A 0.26 0.26 0.0 0 0 80.51 456.25
  L 159.25 456.25
  A 0.26 0.26 0.0 0 0 159.51 455.99
  L 159.51 201.51
  Z"
/>
<path fill="#2867b2" d="
  M 634.19 502.85
  A 36.74 36.74 0.0 0 1 597.45 539.59
  A 36.74 36.74 0.0 0 1 560.71 502.85
  A 36.74 36.74 0.0 0 1 597.45 466.11
  A 36.74 36.74 0.0 0 1 634.19 502.85
  Z
  M 629.73 502.85
  A 32.27 32.27 0.0 0 0 597.46 470.58
  A 32.27 32.27 0.0 0 0 565.19 502.85
  A 32.27 32.27 0.0 0 0 597.46 535.12
  A 32.27 32.27 0.0 0 0 629.73 502.85
  Z"
/>
<path fill="#2867b2" d="
  M 590.00 506.00
  L 590.00 522.00
  Q 590.00 522.50 589.50 522.50
  L 584.75 522.50
  Q 584.25 522.50 584.25 522.00
  L 584.25 483.52
  A 0.25 0.25 0.0 0 1 584.50 483.27
  Q 593.10 483.22 601.75 483.28
  C 616.74 483.38 616.74 504.81 602.81 505.02
  A 0.25 0.25 0.0 0 0 602.61 505.41
  L 613.70 522.18
  A 0.20 0.20 0.0 0 1 613.53 522.49
  L 607.77 522.50
  A 0.39 0.37 -15.8 0 1 607.45 522.33
  L 597.01 505.94
  Q 596.72 505.50 596.20 505.50
  L 590.50 505.50
  Q 590.00 505.50 590.00 506.00
  Z
  M 590.02 488.25
  L 589.98 500.39
  A 0.28 0.28 0.0 0 0 590.26 500.67
  L 600.70 500.71
  A 6.30 5.53 0.2 0 0 607.02 495.20
  L 607.02 493.56
  A 6.30 5.53 0.2 0 0 600.74 488.01
  L 590.30 487.97
  A 0.28 0.28 0.0 0 0 590.02 488.25
  Z"
/>
</svg>
